<svg xmlns="http://www.w3.org/2000/svg" xmlns:xlink="http://www.w3.org/1999/xlink" zoomAndPan="magnify" preserveAspectRatio="xMidYMid meet" version="1.0" viewBox="39.86 158.54 294.28 46.53"><defs><g/></defs><g fill="#94ac02" fill-opacity="1"><g transform="translate(37.52746, 205.073392)"><g><path d="M 2.328125 -46.46875 L 34.71875 -46.46875 L 34.71875 -42.015625 C 34.71875 -40.160156 34.050781 -38.554688 32.71875 -37.203125 C 31.394531 -35.847656 29.78125 -35.171875 27.875 -35.171875 L 13.609375 -35.171875 L 13.609375 -28.140625 L 24.828125 -28.140625 L 24.828125 -16.921875 L 13.609375 -16.921875 L 13.609375 0 L 2.328125 0 Z M 2.328125 -46.46875 "/></g></g></g><g fill="#94ac02" fill-opacity="1"><g transform="translate(71.772966, 205.073392)"><g><path d="M 20.25 -35.25 L 31.53125 -35.25 L 31.53125 -11.28125 C 31.53125 -9.25 31.019531 -7.378906 30 -5.671875 C 28.976562 -3.972656 27.613281 -2.613281 25.90625 -1.59375 C 24.207031 -0.570312 22.320312 -0.0625 20.25 -0.0625 L 14.609375 -0.0625 C 12.523438 -0.0625 10.628906 -0.570312 8.921875 -1.59375 C 7.222656 -2.613281 5.863281 -3.972656 4.84375 -5.671875 C 3.820312 -7.378906 3.3125 -9.25 3.3125 -11.28125 L 3.3125 -35.25 L 14.609375 -35.25 L 14.609375 -11.28125 L 20.25 -11.28125 Z M 20.25 -35.25 "/></g></g></g><g fill="#94ac02" fill-opacity="1"><g transform="translate(106.615771, 205.073392)"><g><path d="M 30.203125 -35.25 L 30.203125 -24.03125 L 21.5 -24.03125 L 21.5 -0.0625 L 10.21875 -0.0625 L 10.21875 -24.03125 L 1.796875 -24.03125 L 1.796875 -35.25 L 10.21875 -35.25 L 10.21875 -46.53125 L 14.9375 -46.53125 C 16.75 -46.53125 18.296875 -45.882812 19.578125 -44.59375 C 20.859375 -43.3125 21.5 -41.765625 21.5 -39.953125 L 21.5 -35.25 Z M 30.203125 -35.25 "/></g></g></g><g fill="#94ac02" fill-opacity="1"><g transform="translate(137.874742, 205.073392)"><g><path d="M 20.25 -35.25 L 31.53125 -35.25 L 31.53125 -11.28125 C 31.53125 -9.25 31.019531 -7.378906 30 -5.671875 C 28.976562 -3.972656 27.613281 -2.613281 25.90625 -1.59375 C 24.207031 -0.570312 22.320312 -0.0625 20.25 -0.0625 L 14.609375 -0.0625 C 12.523438 -0.0625 10.628906 -0.570312 8.921875 -1.59375 C 7.222656 -2.613281 5.863281 -3.972656 4.84375 -5.671875 C 3.820312 -7.378906 3.3125 -9.25 3.3125 -11.28125 L 3.3125 -35.25 L 14.609375 -35.25 L 14.609375 -11.28125 L 20.25 -11.28125 Z M 20.25 -35.25 "/></g></g></g><g fill="#94ac02" fill-opacity="1"><g transform="translate(172.717547, 205.073392)"><g><path d="M 29.203125 -35.25 L 32.125 -35.25 L 32.125 -24.03125 L 29.203125 -24.03125 C 26.328125 -24.03125 23.894531 -23.007812 21.90625 -20.96875 L 14.609375 -13.671875 L 14.609375 -0.0625 L 3.3125 -0.0625 L 3.3125 -35.25 C 5.613281 -35.25 7.679688 -34.628906 9.515625 -33.390625 C 11.359375 -32.148438 12.722656 -30.554688 13.609375 -28.609375 L 13.875 -28.9375 C 15.945312 -30.976562 18.300781 -32.539062 20.9375 -33.625 C 23.570312 -34.707031 26.328125 -35.25 29.203125 -35.25 Z M 29.203125 -35.25 "/></g></g></g><g fill="#94ac02" fill-opacity="1"><g transform="translate(208.157656, 205.073392)"><g><path d="M 9.296875 -35.25 L 13.203125 -35.25 L 13.203125 -0.0625 L 1.921875 -0.0625 L 1.921875 -27.875 C 1.921875 -29.207031 2.253906 -30.4375 2.921875 -31.5625 C 3.585938 -32.6875 4.484375 -33.582031 5.609375 -34.25 C 6.734375 -34.914062 7.960938 -35.25 9.296875 -35.25 Z M 9.296875 -35.25 "/></g></g></g><g fill="#94ac02" fill-opacity="1"><g transform="translate(223.289403, 205.073392)"><g><path d="M 32.859375 -24.03125 L 22.5625 -24.03125 L 22.5625 -26.6875 L 13.609375 -26.6875 L 13.609375 -21.375 L 24.359375 -21.375 C 25.910156 -21.375 27.328125 -20.992188 28.609375 -20.234375 C 29.890625 -19.484375 30.914062 -18.46875 31.6875 -17.1875 C 32.46875 -15.90625 32.859375 -14.46875 32.859375 -12.875 L 32.859375 -8.5 C 32.859375 -6.945312 32.46875 -5.53125 31.6875 -4.25 C 30.914062 -2.96875 29.890625 -1.945312 28.609375 -1.1875 C 27.328125 -0.4375 25.910156 -0.0625 24.359375 -0.0625 L 11.875 -0.0625 C 10.28125 -0.0625 8.84375 -0.4375 7.5625 -1.1875 C 6.28125 -1.945312 5.25 -2.976562 4.46875 -4.28125 C 3.695312 -5.582031 3.3125 -7.007812 3.3125 -8.5625 L 3.3125 -10.6875 L 13.609375 -10.6875 L 13.609375 -8.5625 L 22.5625 -8.5625 L 22.5625 -12.875 L 11.8125 -12.875 C 10.257812 -12.875 8.84375 -13.25 7.5625 -14 C 6.28125 -14.757812 5.25 -15.78125 4.46875 -17.0625 C 3.695312 -18.34375 3.3125 -19.78125 3.3125 -21.375 L 3.3125 -26.75 C 3.3125 -28.300781 3.695312 -29.71875 4.46875 -31 C 5.25 -32.28125 6.28125 -33.304688 7.5625 -34.078125 C 8.84375 -34.859375 10.257812 -35.25 11.8125 -35.25 L 24.296875 -35.25 C 25.890625 -35.25 27.328125 -34.859375 28.609375 -34.078125 C 29.890625 -33.304688 30.914062 -32.28125 31.6875 -31 C 32.46875 -29.71875 32.859375 -28.300781 32.859375 -26.75 Z M 32.859375 -24.03125 "/></g></g></g><g fill="#94ac02" fill-opacity="1"><g transform="translate(259.459572, 205.073392)"><g><path d="M 30.203125 -35.25 L 30.203125 -24.03125 L 21.5 -24.03125 L 21.5 -0.0625 L 10.21875 -0.0625 L 10.21875 -24.03125 L 1.796875 -24.03125 L 1.796875 -35.25 L 10.21875 -35.25 L 10.21875 -46.53125 L 14.9375 -46.53125 C 16.75 -46.53125 18.296875 -45.882812 19.578125 -44.59375 C 20.859375 -43.3125 21.5 -41.765625 21.5 -39.953125 L 21.5 -35.25 Z M 30.203125 -35.25 "/></g></g></g><g fill="#94ac02" fill-opacity="1"><g transform="translate(290.718542, 205.073392)"><g><path d="M 9.296875 -35.25 L 13.203125 -35.25 L 13.203125 -0.0625 L 1.921875 -0.0625 L 1.921875 -27.875 C 1.921875 -29.207031 2.253906 -30.4375 2.921875 -31.5625 C 3.585938 -32.6875 4.484375 -33.582031 5.609375 -34.25 C 6.734375 -34.914062 7.960938 -35.25 9.296875 -35.25 Z M 9.296875 -35.25 "/></g></g></g><g fill="#94ac02" fill-opacity="1"><g transform="translate(305.850289, 205.073392)"><g><path d="M 28.28125 -23.96875 L 14.609375 -23.96875 L 14.609375 -11.28125 L 28.28125 -11.28125 L 28.28125 -0.0625 L 14.609375 -0.0625 C 12.523438 -0.0625 10.628906 -0.570312 8.921875 -1.59375 C 7.222656 -2.613281 5.863281 -3.972656 4.84375 -5.671875 C 3.820312 -7.378906 3.3125 -9.25 3.3125 -11.28125 L 3.3125 -23.96875 C 3.3125 -26.039062 3.820312 -27.925781 4.84375 -29.625 C 5.863281 -31.332031 7.222656 -32.695312 8.921875 -33.71875 C 10.628906 -34.738281 12.523438 -35.25 14.609375 -35.25 L 28.28125 -35.25 Z M 28.28125 -23.96875 "/></g></g></g></svg>