<svg xmlns="http://www.w3.org/2000/svg" xmlns:xlink="http://www.w3.org/1999/xlink" zoomAndPan="magnify" preserveAspectRatio="xMidYMid meet" version="1.0" viewBox="2.91 151.31 367.87 58.16"><defs><g/></defs><g fill="#000000" fill-opacity="1"><g transform="translate(0.0000045, 209.468616)"><g><path d="M 2.90625 -58.078125 L 43.390625 -58.078125 L 43.390625 -52.515625 C 43.390625 -50.191406 42.5625 -48.1875 40.90625 -46.5 C 39.25 -44.8125 37.226562 -43.96875 34.84375 -43.96875 L 17.015625 -43.96875 L 17.015625 -35.171875 L 31.03125 -35.171875 L 31.03125 -21.15625 L 17.015625 -21.15625 L 17.015625 0 L 2.90625 0 Z M 2.90625 -58.078125 "/></g></g></g><g fill="#000000" fill-opacity="1"><g transform="translate(42.810544, 209.468616)"><g><path d="M 25.3125 -44.0625 L 39.40625 -44.0625 L 39.40625 -14.109375 C 39.40625 -11.554688 38.769531 -9.21875 37.5 -7.09375 C 36.226562 -4.96875 34.523438 -3.265625 32.390625 -1.984375 C 30.265625 -0.710938 27.90625 -0.078125 25.3125 -0.078125 L 18.25 -0.078125 C 15.65625 -0.078125 13.289062 -0.710938 11.15625 -1.984375 C 9.03125 -3.265625 7.328125 -4.96875 6.046875 -7.09375 C 4.773438 -9.21875 4.140625 -11.554688 4.140625 -14.109375 L 4.140625 -44.0625 L 18.25 -44.0625 L 18.25 -14.109375 L 25.3125 -14.109375 Z M 25.3125 -44.0625 "/></g></g></g><g fill="#000000" fill-opacity="1"><g transform="translate(86.367773, 209.468616)"><g><path d="M 37.75 -44.0625 L 37.75 -30.03125 L 26.875 -30.03125 L 26.875 -0.078125 L 12.78125 -0.078125 L 12.78125 -30.03125 L 2.234375 -30.03125 L 2.234375 -44.0625 L 12.78125 -44.0625 L 12.78125 -58.15625 L 18.671875 -58.15625 C 20.929688 -58.15625 22.863281 -57.351562 24.46875 -55.75 C 26.070312 -54.144531 26.875 -52.210938 26.875 -49.953125 L 26.875 -44.0625 Z M 37.75 -44.0625 "/></g></g></g><g fill="#000000" fill-opacity="1"><g transform="translate(125.444825, 209.468616)"><g><path d="M 25.3125 -44.0625 L 39.40625 -44.0625 L 39.40625 -14.109375 C 39.40625 -11.554688 38.769531 -9.21875 37.5 -7.09375 C 36.226562 -4.96875 34.523438 -3.265625 32.390625 -1.984375 C 30.265625 -0.710938 27.90625 -0.078125 25.3125 -0.078125 L 18.25 -0.078125 C 15.65625 -0.078125 13.289062 -0.710938 11.15625 -1.984375 C 9.03125 -3.265625 7.328125 -4.96875 6.046875 -7.09375 C 4.773438 -9.21875 4.140625 -11.554688 4.140625 -14.109375 L 4.140625 -44.0625 L 18.25 -44.0625 L 18.25 -14.109375 L 25.3125 -14.109375 Z M 25.3125 -44.0625 "/></g></g></g><g fill="#000000" fill-opacity="1"><g transform="translate(169.002054, 209.468616)"><g><path d="M 36.5 -44.0625 L 40.15625 -44.0625 L 40.15625 -30.03125 L 36.5 -30.03125 C 32.90625 -30.03125 29.863281 -28.757812 27.375 -26.21875 L 18.25 -17.09375 L 18.25 -0.078125 L 4.140625 -0.078125 L 4.140625 -44.0625 C 7.023438 -44.0625 9.613281 -43.285156 11.90625 -41.734375 C 14.195312 -40.179688 15.898438 -38.191406 17.015625 -35.765625 L 17.34375 -36.171875 C 19.9375 -38.710938 22.878906 -40.660156 26.171875 -42.015625 C 29.460938 -43.378906 32.90625 -44.0625 36.5 -44.0625 Z M 36.5 -44.0625 "/></g></g></g><g fill="#000000" fill-opacity="1"><g transform="translate(213.305975, 209.468616)"><g><path d="M 11.609375 -44.0625 L 16.515625 -44.0625 L 16.515625 -0.078125 L 2.40625 -0.078125 L 2.40625 -34.84375 C 2.40625 -36.5 2.816406 -38.03125 3.640625 -39.4375 C 4.472656 -40.851562 5.59375 -41.976562 7 -42.8125 C 8.414062 -43.644531 9.953125 -44.0625 11.609375 -44.0625 Z M 11.609375 -44.0625 "/></g></g></g><g fill="#000000" fill-opacity="1"><g transform="translate(232.222275, 209.468616)"><g><path d="M 41.0625 -30.03125 L 28.203125 -30.03125 L 28.203125 -33.359375 L 17.015625 -33.359375 L 17.015625 -26.71875 L 30.453125 -26.71875 C 32.390625 -26.71875 34.160156 -26.242188 35.765625 -25.296875 C 37.367188 -24.359375 38.648438 -23.085938 39.609375 -21.484375 C 40.578125 -19.878906 41.0625 -18.082031 41.0625 -16.09375 L 41.0625 -10.625 C 41.0625 -8.6875 40.578125 -6.914062 39.609375 -5.3125 C 38.648438 -3.707031 37.367188 -2.429688 35.765625 -1.484375 C 34.160156 -0.546875 32.390625 -0.078125 30.453125 -0.078125 L 14.84375 -0.078125 C 12.851562 -0.078125 11.054688 -0.546875 9.453125 -1.484375 C 7.847656 -2.429688 6.5625 -3.71875 5.59375 -5.34375 C 4.625 -6.976562 4.140625 -8.765625 4.140625 -10.703125 L 4.140625 -13.359375 L 17.015625 -13.359375 L 17.015625 -10.703125 L 28.203125 -10.703125 L 28.203125 -16.09375 L 14.765625 -16.09375 C 12.828125 -16.09375 11.054688 -16.5625 9.453125 -17.5 C 7.847656 -18.445312 6.5625 -19.722656 5.59375 -21.328125 C 4.625 -22.929688 4.140625 -24.726562 4.140625 -26.71875 L 4.140625 -33.4375 C 4.140625 -35.375 4.625 -37.144531 5.59375 -38.75 C 6.5625 -40.351562 7.847656 -41.640625 9.453125 -42.609375 C 11.054688 -43.578125 12.828125 -44.0625 14.765625 -44.0625 L 30.359375 -44.0625 C 32.359375 -44.0625 34.160156 -43.578125 35.765625 -42.609375 C 37.367188 -41.640625 38.648438 -40.351562 39.609375 -38.75 C 40.578125 -37.144531 41.0625 -35.375 41.0625 -33.4375 Z M 41.0625 -30.03125 "/></g></g></g><g fill="#000000" fill-opacity="1"><g transform="translate(277.43885, 209.468616)"><g><path d="M 37.75 -44.0625 L 37.75 -30.03125 L 26.875 -30.03125 L 26.875 -0.078125 L 12.78125 -0.078125 L 12.78125 -30.03125 L 2.234375 -30.03125 L 2.234375 -44.0625 L 12.78125 -44.0625 L 12.78125 -58.15625 L 18.671875 -58.15625 C 20.929688 -58.15625 22.863281 -57.351562 24.46875 -55.75 C 26.070312 -54.144531 26.875 -52.210938 26.875 -49.953125 L 26.875 -44.0625 Z M 37.75 -44.0625 "/></g></g></g><g fill="#000000" fill-opacity="1"><g transform="translate(316.515902, 209.468616)"><g><path d="M 11.609375 -44.0625 L 16.515625 -44.0625 L 16.515625 -0.078125 L 2.40625 -0.078125 L 2.40625 -34.84375 C 2.40625 -36.5 2.816406 -38.03125 3.640625 -39.4375 C 4.472656 -40.851562 5.59375 -41.976562 7 -42.8125 C 8.414062 -43.644531 9.953125 -44.0625 11.609375 -44.0625 Z M 11.609375 -44.0625 "/></g></g></g><g fill="#000000" fill-opacity="1"><g transform="translate(335.432202, 209.468616)"><g><path d="M 35.34375 -29.953125 L 18.25 -29.953125 L 18.25 -14.109375 L 35.34375 -14.109375 L 35.34375 -0.078125 L 18.25 -0.078125 C 15.65625 -0.078125 13.289062 -0.710938 11.15625 -1.984375 C 9.03125 -3.265625 7.328125 -4.96875 6.046875 -7.09375 C 4.773438 -9.21875 4.140625 -11.554688 4.140625 -14.109375 L 4.140625 -29.953125 C 4.140625 -32.546875 4.773438 -34.90625 6.046875 -37.03125 C 7.328125 -39.164062 9.03125 -40.867188 11.15625 -42.140625 C 13.289062 -43.421875 15.65625 -44.0625 18.25 -44.0625 L 35.34375 -44.0625 Z M 35.34375 -29.953125 "/></g></g></g></svg>